<svg width="64" height="64" viewBox="0 0 64 64" fill="none" xmlns="http://www.w3.org/2000/svg">
<rect x="13.5" y="13.5" width="37" height="37" rx="18.5" stroke="#FF9224" stroke-width="3"/>
<path d="M47.9099 16.0901C52.1295 20.3097 54.5 26.0326 54.5 32C54.5 37.9673 52.1295 43.6903 47.9099 47.9099" stroke="#FF9224" stroke-width="3"/>
<path d="M16.0901 16.0901C11.8705 20.3097 9.5 26.0326 9.5 32C9.5 37.9673 11.8705 43.6903 16.0901 47.9099" stroke="#FF9224" stroke-width="3"/>
<path d="M16.56 37C16.4747 37 16.3947 36.968 16.32 36.904C16.256 36.84 16.224 36.76 16.224 36.664C16.224 36.6213 16.2347 36.5733 16.256 36.52L20.112 26.2C20.144 26.0933 20.2027 26.0027 20.288 25.928C20.384 25.8427 20.512 25.8 20.672 25.8H22.416C22.576 25.8 22.6987 25.8427 22.784 25.928C22.8693 26.0027 22.9333 26.0933 22.976 26.2L26.832 36.52C26.8427 36.5733 26.848 36.6213 26.848 36.664C26.848 36.76 26.816 36.84 26.752 36.904C26.688 36.968 26.6133 37 26.528 37H25.136C24.9867 37 24.8747 36.968 24.8 36.904C24.736 36.8293 24.6933 36.76 24.672 36.696L23.92 34.744H19.168L18.416 36.696C18.3947 36.76 18.3467 36.8293 18.272 36.904C18.208 36.968 18.1013 37 17.952 37H16.56ZM19.728 32.904H23.36L21.536 27.96L19.728 32.904ZM28.7258 37C28.6191 37 28.5284 36.9627 28.4538 36.888C28.3791 36.8133 28.3418 36.7227 28.3418 36.616V26.2C28.3418 26.0827 28.3791 25.9867 28.4538 25.912C28.5284 25.8373 28.6191 25.8 28.7258 25.8H33.3658C34.2298 25.8 34.9338 25.9333 35.4778 26.2C36.0218 26.456 36.4218 26.8133 36.6778 27.272C36.9444 27.7307 37.0778 28.264 37.0778 28.872C37.0778 29.2773 37.0031 29.6347 36.8538 29.944C36.7151 30.2427 36.5391 30.488 36.3258 30.68C36.1231 30.872 35.9204 31.0213 35.7178 31.128C36.1338 31.32 36.5018 31.64 36.8218 32.088C37.1418 32.536 37.3018 33.0693 37.3018 33.688C37.3018 34.328 37.1578 34.8987 36.8698 35.4C36.5818 35.9013 36.1551 36.296 35.5898 36.584C35.0244 36.8613 34.3258 37 33.4938 37H28.7258ZM30.5658 35.304H33.2378C33.8138 35.304 34.2511 35.1493 34.5498 34.84C34.8484 34.52 34.9978 34.136 34.9978 33.688C34.9978 33.2187 34.8431 32.8293 34.5338 32.52C34.2351 32.2107 33.8031 32.056 33.2378 32.056H30.5658V35.304ZM30.5658 30.392H33.0778C33.6431 30.392 34.0644 30.2587 34.3418 29.992C34.6298 29.7147 34.7738 29.3573 34.7738 28.92C34.7738 28.472 34.6298 28.1253 34.3418 27.88C34.0644 27.624 33.6431 27.496 33.0778 27.496H30.5658V30.392ZM43.1985 37.16C42.2065 37.16 41.3745 37.016 40.7025 36.728C40.0412 36.4293 39.5345 36.0453 39.1825 35.576C38.8412 35.096 38.6598 34.5947 38.6385 34.072C38.6385 33.976 38.6705 33.896 38.7345 33.832C38.7985 33.768 38.8785 33.736 38.9745 33.736H40.3985C40.5372 33.736 40.6385 33.768 40.7025 33.832C40.7772 33.8853 40.8412 33.9547 40.8945 34.04C40.9585 34.2427 41.0812 34.4453 41.2625 34.648C41.4438 34.84 41.6892 35 41.9985 35.128C42.3185 35.256 42.7185 35.32 43.1985 35.32C43.9665 35.32 44.5372 35.192 44.9105 34.936C45.2945 34.68 45.4865 34.3333 45.4865 33.896C45.4865 33.5867 45.3852 33.3413 45.1825 33.16C44.9798 32.968 44.6652 32.7973 44.2385 32.648C43.8225 32.488 43.2678 32.3227 42.5745 32.152C41.7745 31.96 41.1025 31.7307 40.5585 31.464C40.0252 31.1867 39.6198 30.84 39.3425 30.424C39.0758 30.008 38.9425 29.48 38.9425 28.84C38.9425 28.2213 39.1078 27.672 39.4385 27.192C39.7798 26.712 40.2598 26.3333 40.8785 26.056C41.5078 25.7787 42.2545 25.64 43.1185 25.64C43.8118 25.64 44.4252 25.736 44.9585 25.928C45.4918 26.1093 45.9345 26.3547 46.2865 26.664C46.6385 26.9627 46.9052 27.288 47.0865 27.64C47.2785 27.9813 47.3798 28.3173 47.3905 28.648C47.3905 28.7333 47.3585 28.8133 47.2945 28.888C47.2412 28.952 47.1612 28.984 47.0545 28.984H45.5665C45.4812 28.984 45.3958 28.9627 45.3105 28.92C45.2252 28.8773 45.1558 28.7973 45.1025 28.68C45.0385 28.3493 44.8305 28.0667 44.4785 27.832C44.1265 27.5973 43.6732 27.48 43.1185 27.48C42.5425 27.48 42.0785 27.5867 41.7265 27.8C41.3745 28.0133 41.1985 28.344 41.1985 28.792C41.1985 29.0907 41.2838 29.3413 41.4545 29.544C41.6358 29.736 41.9185 29.9067 42.3025 30.056C42.6972 30.2053 43.2145 30.3653 43.8545 30.536C44.7612 30.7387 45.5025 30.9733 46.0785 31.24C46.6545 31.5067 47.0758 31.848 47.3425 32.264C47.6092 32.6693 47.7425 33.1867 47.7425 33.816C47.7425 34.52 47.5505 35.1227 47.1665 35.624C46.7932 36.1147 46.2652 36.4933 45.5825 36.76C44.8998 37.0267 44.1052 37.16 43.1985 37.16Z" fill="#FF9224"/>
</svg>
