<svg width="64" height="64" viewBox="0 0 64 64" fill="none" xmlns="http://www.w3.org/2000/svg">
<rect x="16" y="17" width="8" height="4" rx="0.5" fill="#FF8181"/>
<rect x="40" y="17" width="8" height="4" rx="0.5" fill="#FF8181"/>
<rect x="9.5" y="20.5" width="45" height="25" rx="3.5" stroke="#FF8181" stroke-width="3" stroke-linejoin="round"/>
<path d="M17.472 28.872C17.3653 28.872 17.2747 28.84 17.2 28.776C17.136 28.7013 17.104 28.6107 17.104 28.504V27.896C17.104 27.7893 17.136 27.704 17.2 27.64C17.2747 27.5653 17.3653 27.528 17.472 27.528H22.272C22.3787 27.528 22.464 27.5653 22.528 27.64C22.6027 27.704 22.64 27.7893 22.64 27.896V28.504C22.64 28.6107 22.6027 28.7013 22.528 28.776C22.464 28.84 22.3787 28.872 22.272 28.872H17.472Z" fill="#FF8181"/>
<path d="M43.688 32.472C43.5813 32.472 43.4907 32.44 43.416 32.376C43.352 32.3013 43.32 32.2107 43.32 32.104V28.776H40.04C39.9333 28.776 39.8427 28.744 39.768 28.68C39.704 28.6053 39.672 28.5147 39.672 28.408V27.896C39.672 27.7893 39.704 27.704 39.768 27.64C39.8427 27.5653 39.9333 27.528 40.04 27.528H43.32V24.296C43.32 24.1893 43.352 24.104 43.416 24.04C43.4907 23.9653 43.5813 23.928 43.688 23.928H44.248C44.3547 23.928 44.44 23.9653 44.504 24.04C44.5787 24.104 44.616 24.1893 44.616 24.296V27.528H47.912C48.0187 27.528 48.104 27.5653 48.168 27.64C48.2427 27.704 48.28 27.7893 48.28 27.896V28.408C48.28 28.5147 48.2427 28.6053 48.168 28.68C48.104 28.744 48.0187 28.776 47.912 28.776H44.616V32.104C44.616 32.2107 44.5787 32.3013 44.504 32.376C44.44 32.44 44.3547 32.472 44.248 32.472H43.688Z" fill="#FF8181"/>
</svg>
