<svg width="64" height="64" viewBox="0 0 64 64" fill="none" xmlns="http://www.w3.org/2000/svg">
<path d="M51.5 38.5V38C51.5 36.6193 50.3807 35.5 49 35.5C47.6193 35.5 46.5 36.6193 46.5 38V42C46.5 42.2761 46.2761 42.5 46 42.5H32.4471C32.3735 42.5 32.3008 42.4837 32.2342 42.4524L24.5432 38.8331C24.077 38.6138 23.5682 38.5 23.0529 38.5H18C17.7239 38.5 17.5 38.2761 17.5 38V24C17.5 23.7239 17.7239 23.5 18 23.5H18.7984C19.5932 23.5 20.3643 23.2295 20.9849 22.733L22.3892 21.6096C22.4779 21.5386 22.588 21.5 22.7016 21.5H43.5C43.5 23.1569 44.8431 24.5 46.5 24.5V28C46.5 29.3807 47.6193 30.5 49 30.5C50.3807 30.5 51.5 29.3807 51.5 28V27.5H53.5C53.7761 27.5 54 27.7239 54 28V38C54 38.2761 53.7761 38.5 53.5 38.5H51.5Z" stroke="#FF9224" stroke-width="3" stroke-linejoin="round"/>
<path d="M10.5 23C10.5 22.4477 10.9477 22 11.5 22H13C13.5523 22 14 22.4477 14 23V27C14 27.5523 14.4477 28 15 28H17C17.5523 28 18 28.4477 18 29V31C18 31.5523 17.5523 32 17 32H15C14.4477 32 14 32.4477 14 33V39C14 39.5523 13.5523 40 13 40H12.8471C12.3583 40 11.9411 39.6466 11.8607 39.1644L11.5136 37.0816C11.5046 37.0273 11.5 36.9723 11.5 36.9172V34.1231C11.5 34.0413 11.49 33.9599 11.4701 33.8806L10.5299 30.1194C10.51 30.0401 10.5 29.9587 10.5 29.8769V23Z" fill="#FF9224"/>
<path fill-rule="evenodd" clip-rule="evenodd" d="M15 32H14V33C14 32.4477 14.4477 32 15 32ZM16 33V32H15C15.5523 32 16 32.4477 16 33Z" fill="#FF9224"/>
<path fill-rule="evenodd" clip-rule="evenodd" d="M15 28H14V27C14 27.5523 14.4477 28 15 28ZM16 27V28H15C15.5523 28 16 27.5523 16 27Z" fill="#FF9224"/>
<path d="M25 17.5C25 16.9477 25.4477 16.5 26 16.5H40C40.5523 16.5 41 16.9477 41 17.5V18C41 18.5523 40.5523 19 40 19H35.6667C35.263 19 34.8989 19.2427 34.7436 19.6154L34.0064 21.3846C33.8511 21.7573 33.487 22 33.0833 22H32.5308C32.0719 22 31.6719 21.6877 31.5606 21.2425L31.1894 19.7575C31.0781 19.3123 30.6781 19 30.2192 19H26C25.4477 19 25 18.5523 25 18V17.5Z" fill="#FF9224"/>
</svg>
