<svg width="64" height="64" viewBox="0 0 64 64" fill="none" xmlns="http://www.w3.org/2000/svg">
<rect x="13.5" y="13.5" width="37" height="37" rx="18.5" stroke="#FF8181" stroke-width="3"/>
<path d="M47.9099 16.0901C52.1295 20.3097 54.5 26.0326 54.5 32C54.5 37.9673 52.1295 43.6903 47.9099 47.9099" stroke="#FF8181" stroke-width="3"/>
<path d="M16.0901 16.0901C11.8705 20.3097 9.5 26.0326 9.5 32C9.5 37.9673 11.8705 43.6903 16.0901 47.9099" stroke="#FF8181" stroke-width="3"/>
<path d="M31.184 35.032C31.008 35.032 30.864 34.976 30.752 34.864C30.64 34.752 30.584 34.608 30.584 34.432V23.8C30.584 23.624 30.64 23.48 30.752 23.368C30.864 23.256 31.008 23.2 31.184 23.2H33.512C33.688 23.2 33.832 23.256 33.944 23.368C34.056 23.48 34.112 23.624 34.112 23.8V34.432C34.112 34.608 34.056 34.752 33.944 34.864C33.832 34.976 33.688 35.032 33.512 35.032H31.184ZM31.04 40C30.88 40 30.744 39.944 30.632 39.832C30.52 39.72 30.464 39.576 30.464 39.4V36.832C30.464 36.656 30.52 36.512 30.632 36.4C30.744 36.288 30.88 36.232 31.04 36.232H33.632C33.808 36.232 33.952 36.288 34.064 36.4C34.176 36.512 34.232 36.656 34.232 36.832V39.4C34.232 39.576 34.176 39.72 34.064 39.832C33.952 39.944 33.808 40 33.632 40H31.04Z" fill="#FF8181"/>
</svg>
