<svg width="64" height="64" viewBox="0 0 64 64" fill="none" xmlns="http://www.w3.org/2000/svg">
<path fill-rule="evenodd" clip-rule="evenodd" d="M38.0771 16.3698C38.5993 15.8971 39.3472 15.9603 40.0359 16.1078L51.7587 18.6199C52.5829 18.7965 53.3968 19.0804 53.9529 19.714C55.136 21.0618 57 24.3769 57 31.8859C57 39.3948 55.136 42.7099 53.9529 44.0578C53.3968 44.6913 52.5829 44.9752 51.7587 45.1519L40.0359 47.6639C39.3472 47.8115 38.5993 47.8746 38.0771 47.402C36.8958 46.3328 35 42.901 35 31.8859C35 20.8708 36.8958 17.439 38.0771 16.3698ZM6 19.8859C6 18.7813 6.89543 17.8859 8 17.8859H33C34.1046 17.8859 35 18.7813 35 19.8859C35 20.9904 34.1046 21.8859 33 21.8859H8C6.89543 21.8859 6 20.9904 6 19.8859ZM8 25.8859C6.89543 25.8859 6 26.7813 6 27.8859C6 28.9904 6.89543 29.8859 8 29.8859H32C33.1046 29.8859 34 28.9904 34 27.8859C34 26.7813 33.1046 25.8859 32 25.8859H8ZM6 35.8859C6 34.7813 6.89543 33.8859 8 33.8859H32C33.1046 33.8859 34 34.7813 34 35.8859C34 36.9904 33.1046 37.8859 32 37.8859H8C6.89543 37.8859 6 36.9904 6 35.8859ZM8 41.8859C6.89543 41.8859 6 42.7813 6 43.8859C6 44.9904 6.89543 45.8859 8 45.8859H33C34.1046 45.8859 35 44.9904 35 43.8859C35 42.7813 34.1046 41.8859 33 41.8859H8Z" fill="#5C98FF"/>
</svg>
