<svg width="64" height="64" viewBox="0 0 64 64" fill="none" xmlns="http://www.w3.org/2000/svg">
<path fill-rule="evenodd" clip-rule="evenodd" d="M40.0359 16.1078C39.3472 15.9603 38.5993 15.8971 38.0771 16.3698C36.8958 17.439 35 20.8708 35 31.8859C35 42.901 36.8958 46.3328 38.0771 47.402C38.5993 47.8746 39.3472 47.8115 40.0359 47.6639L51.7587 45.1519C52.5829 44.9752 53.3968 44.6913 53.9529 44.0578C55.136 42.7099 57 39.3948 57 31.8859C57 24.3769 55.136 21.0618 53.9529 19.714C53.3968 19.0804 52.5829 18.7965 51.7587 18.6199L40.0359 16.1078ZM21.0019 29.9131C20.9328 31.5032 21.6794 32.6476 22.6035 33.4105C23.3799 34.0515 24.3602 34.4846 25.0509 34.7898L25.1365 34.8277C25.9629 35.1935 26.4623 35.4273 26.7926 35.6916C27.0029 35.86 27.0017 35.9175 27.0003 35.9833L27 36L27.0001 36.0132C27.0006 36.0978 27.0009 36.1544 26.7981 36.3198C26.4812 36.5785 25.9972 36.81 25.1828 37.1746L25.0895 37.2163L25.0895 37.2163C24.4073 37.5211 23.4453 37.9509 22.6731 38.5809C21.7612 39.3249 21 40.4354 21 42C21 42.9173 21.1379 44.1835 22.212 44.9669C22.6304 45.2721 23.0578 45.3921 23.2884 45.4458C23.3879 45.823 23.5 46.5808 23.5 48C23.5 49.1046 24.3954 50 25.5 50C26.6046 50 27.5 49.1046 27.5 48C27.5 46.1872 27.3459 44.8538 26.9845 43.8797C26.7936 43.3651 26.5217 42.8855 26.1271 42.4888C25.784 42.1438 25.4158 41.9295 25.0784 41.7927C25.1075 41.7613 25.1474 41.7246 25.2019 41.6802C25.5189 41.4215 26.0029 41.19 26.8173 40.8254L26.9105 40.7837C27.5927 40.479 28.5547 40.0491 29.3269 39.4191C30.2388 38.6751 31 37.5646 31 36C31 34.4168 30.2115 33.3046 29.292 32.5686C28.5152 31.947 27.5485 31.5201 26.8608 31.2165L26.7556 31.17C25.931 30.805 25.4525 30.5755 25.1501 30.3258C24.9869 30.1912 24.9905 30.1593 24.9961 30.1103C24.9969 30.103 24.9978 30.0953 24.9981 30.0869C25.0153 29.6928 25.1961 29.0588 25.5818 28.2641C25.8376 27.7373 26.1466 27.2146 26.4588 26.7497C27.0319 26.6812 27.4363 26.396 27.6241 26.2396C27.8811 26.0254 28.0441 25.7973 28.1211 25.6817C28.1666 25.6135 28.2027 25.5529 28.2293 25.506C28.2428 25.4821 28.2545 25.4606 28.2643 25.442L28.2778 25.4161L28.2836 25.4048L28.2863 25.3995L28.2876 25.3969C28.2882 25.3957 28.2888 25.3944 26.5 24.5L28.2888 25.3944L28.3136 25.345L28.3355 25.2943C28.4338 25.0671 28.5233 24.8349 28.5897 24.6079C28.6456 24.4171 28.7337 24.0735 28.7156 23.6775C28.7006 23.3478 28.5506 22.3436 27.5519 21.8615C27.5199 21.2476 27.5 20.4727 27.5 19.5C27.5 18.3954 26.6046 17.5 25.5 17.5C24.3954 17.5 23.5 18.3954 23.5 19.5C23.5 21.2857 23.5632 22.5606 23.6699 23.468C23.6801 23.5543 23.691 23.6413 23.7029 23.7286L23.68 23.7587C23.1045 24.5197 22.4811 25.4922 21.9834 26.5172C21.5028 27.5074 21.0538 28.7194 21.0019 29.9131ZM24.1971 41.5498C24.1974 41.5497 24.2036 41.5511 24.2147 41.5543C24.2023 41.5515 24.1968 41.5499 24.1971 41.5498ZM25.0176 42.3312C25.0222 42.3485 25.0237 42.3584 25.0233 42.3589C25.0229 42.3595 25.0206 42.3509 25.0176 42.3312Z" fill="#00D916"/>
<rect x="16" y="42.4296" width="18" height="4" rx="2" transform="rotate(-20.9285 16 42.4296)" fill="#00D916"/>
<rect x="16" y="42.4296" width="18" height="4" rx="2" transform="rotate(-20.9285 16 42.4296)" fill="black" fill-opacity="0.05"/>
<rect x="16" y="26.4296" width="18" height="4" rx="2" transform="rotate(-20.9285 16 26.4296)" fill="#00D916"/>
<rect x="16" y="26.4296" width="18" height="4" rx="2" transform="rotate(-20.9285 16 26.4296)" fill="black" fill-opacity="0.05"/>
<rect x="16" y="34.4296" width="18" height="4" rx="2" transform="rotate(-20.9285 16 34.4296)" fill="#00D916"/>
<rect x="16" y="34.4296" width="18" height="4" rx="2" transform="rotate(-20.9285 16 34.4296)" fill="black" fill-opacity="0.05"/>
</svg>
