<svg width="64" height="64" viewBox="0 0 64 64" fill="none" xmlns="http://www.w3.org/2000/svg">
<path fill-rule="evenodd" clip-rule="evenodd" d="M20 13C20 10.2386 22.2386 8 25 8H39C41.7614 8 44 10.2386 44 13V45.2041C44.1166 45.3786 44.2493 45.5665 44.3963 45.7576C45.01 46.5554 45.7961 47.3086 46.6213 47.5149C46.9856 47.606 47.2436 47.536 47.4503 47.3932C47.6766 47.237 47.8785 46.9659 48.046 46.603C48.3828 45.8733 48.5 44.9493 48.5 44.5C48.5 42.6786 47.957 41.6671 47.3711 40.7033C47.3243 40.6262 47.2768 40.549 47.229 40.4713C46.6667 39.5569 46.0656 38.5795 46.0004 37.0209C45.9387 35.5453 46.3856 34.4205 46.7919 33.3981L46.8256 33.3131C47.2426 32.2624 47.6036 31.307 47.5016 30.0401C47.4248 29.0858 47.0659 27.7581 46.7119 26.6388C46.537 26.0857 46.367 25.5948 46.2407 25.2422C46.2083 25.1519 46.1788 25.0707 46.1529 25H45.5C45.2239 25 45 24.7761 45 24.5V16.5C45 16.2239 45.2239 16 45.5 16H46.0764C46.3209 16 46.5295 16.1767 46.5696 16.4178L47.903 24.4178C47.9538 24.7226 47.7187 25 47.4098 25H47.216C47.3411 25.3521 47.501 25.8175 47.6654 26.3372C48.0204 27.4598 48.4116 28.8822 48.4984 29.9599C48.6208 31.4797 48.1735 32.6277 47.7551 33.682L47.7393 33.7217C47.3249 34.7659 46.9468 35.7184 46.9996 36.9791C47.0536 38.2705 47.5285 39.0454 48.0905 39.9627C48.1351 40.0354 48.1802 40.109 48.2257 40.1839C48.8576 41.2234 49.5 42.4196 49.5 44.5C49.5 45.0507 49.3672 46.1267 48.954 47.022C48.7465 47.4716 48.4484 47.9193 48.0185 48.2161C47.5689 48.5265 47.0144 48.644 46.3787 48.4851C45.4266 48.247 44.613 47.5472 44 46.85V51C44 51.3425 43.9656 51.6769 43.9 52H46C47.1046 52 48 52.8954 48 54C48 55.1046 47.1046 56 46 56H39H25H18C16.8954 56 16 55.1046 16 54C16 52.8954 16.8954 52 18 52H20.1C20.0344 51.6769 20 51.3425 20 51V13ZM22 13C22 11.3431 23.3431 10 25 10H39C40.6569 10 42 11.3431 42 13V27C42 28.6569 40.6569 30 39 30H25C23.3431 30 22 28.6569 22 27V13Z" fill="#FF9224"/>
</svg>
