<svg width="64" height="64" viewBox="0 0 64 64" fill="none" xmlns="http://www.w3.org/2000/svg">
<rect x="13.5" y="13.5" width="37" height="37" rx="18.5" stroke="#FF8181" stroke-width="3"/>
<path fill-rule="evenodd" clip-rule="evenodd" d="M36.9705 24.033C36.8519 24.0112 36.7308 24 36.6086 24H26.3913C25.8885 24 25.4042 24.1894 25.0348 24.5304L20.7005 28.5312H18.2152C18.0259 28.5312 17.8527 28.6383 17.768 28.8076L17.3618 29.6201C17.1956 29.9526 17.4373 30.3438 17.809 30.3438H19.7187V35.375V36.1355V38.9062C19.7187 39.1824 19.9426 39.4062 20.2187 39.4062H21.4051L22.4375 38.3866V36.6875H24.1578L30.5808 30.3438H21.7187V30.3132L26.3913 26H34.9789L36.9705 24.033ZM36.2731 30.3438H41.2812V30.3132L38.7086 27.9384L40.133 26.5315L42.2995 28.5312H44.7847C44.9741 28.5312 45.1472 28.6383 45.2319 28.8076L45.6382 29.6201C45.8044 29.9526 45.5627 30.3438 45.191 30.3438H43.2812V35.375V35.6682V38.9062C43.2812 39.1824 43.0574 39.4062 42.7812 39.4062H41.0625C40.7863 39.4062 40.5625 39.1824 40.5625 38.9062V36.6875H29.8501L36.2731 30.3438Z" fill="#FF8181"/>
<path d="M19.5 44.0001L45 19" stroke="#FF8181" stroke-width="3"/>
</svg>
