<svg width="64" height="64" viewBox="0 0 64 64" fill="none" xmlns="http://www.w3.org/2000/svg">
<rect x="13.5" y="13.5" width="37" height="37" rx="18.5" stroke="#FF8181" stroke-width="3"/>
<circle cx="31.5" cy="31.5" r="2.5" fill="#FF8181"/>
<path d="M31.5 31.5L46 37" stroke="#FF8181" stroke-width="3" stroke-linecap="round"/>
<path d="M23.792 45C23.7333 45 23.6853 44.9813 23.648 44.944C23.6107 44.9067 23.592 44.8587 23.592 44.8V39.6C23.592 39.5413 23.6107 39.4933 23.648 39.456C23.6853 39.4187 23.7333 39.4 23.792 39.4H25.912C26.5787 39.4 27.104 39.5547 27.488 39.864C27.872 40.168 28.064 40.608 28.064 41.184C28.064 41.5733 27.9707 41.8987 27.784 42.16C27.5973 42.4213 27.3467 42.616 27.032 42.744L28.16 44.744C28.176 44.776 28.184 44.8053 28.184 44.832C28.184 44.8747 28.168 44.9147 28.136 44.952C28.104 44.984 28.064 45 28.016 45H27.128C27.032 45 26.96 44.976 26.912 44.928C26.864 44.8747 26.8293 44.8267 26.808 44.784L25.832 42.952H24.864V44.8C24.864 44.8587 24.8453 44.9067 24.808 44.944C24.7707 44.9813 24.7227 45 24.664 45H23.792ZM24.864 41.936H25.888C26.1813 41.936 26.3973 41.8693 26.536 41.736C26.68 41.6027 26.752 41.416 26.752 41.176C26.752 40.936 26.6827 40.7467 26.544 40.608C26.4053 40.4693 26.1867 40.4 25.888 40.4H24.864V41.936ZM29.2451 45C29.1865 45 29.1385 44.9813 29.1011 44.944C29.0638 44.9067 29.0451 44.8587 29.0451 44.8V39.6C29.0451 39.5413 29.0638 39.4933 29.1011 39.456C29.1385 39.4187 29.1865 39.4 29.2451 39.4H31.4291C31.8611 39.4 32.2345 39.4667 32.5491 39.6C32.8691 39.7333 33.1171 39.936 33.2931 40.208C33.4745 40.4747 33.5651 40.808 33.5651 41.208C33.5651 41.6133 33.4745 41.9493 33.2931 42.216C33.1171 42.4773 32.8691 42.672 32.5491 42.8C32.2345 42.928 31.8611 42.992 31.4291 42.992H30.3571V44.8C30.3571 44.8587 30.3385 44.9067 30.3011 44.944C30.2638 44.9813 30.2158 45 30.1571 45H29.2451ZM30.3331 42H31.3891C31.6611 42 31.8718 41.9333 32.0211 41.8C32.1758 41.6667 32.2531 41.4667 32.2531 41.2C32.2531 40.9653 32.1838 40.7733 32.0451 40.624C31.9118 40.4747 31.6931 40.4 31.3891 40.4H30.3331V42ZM34.5811 45C34.5277 45 34.4797 44.9813 34.4371 44.944C34.3997 44.9067 34.3811 44.8587 34.3811 44.8V39.6C34.3811 39.5413 34.3997 39.4933 34.4371 39.456C34.4797 39.4187 34.5277 39.4 34.5811 39.4H35.3251C35.4051 39.4 35.4637 39.4213 35.5011 39.464C35.5437 39.5067 35.5731 39.5387 35.5891 39.56L37.0611 42.272L38.5491 39.56C38.5597 39.5387 38.5837 39.5067 38.6211 39.464C38.6637 39.4213 38.7251 39.4 38.8051 39.4H39.5491C39.6077 39.4 39.6557 39.4187 39.6931 39.456C39.7304 39.4933 39.7491 39.5413 39.7491 39.6V44.8C39.7491 44.8587 39.7304 44.9067 39.6931 44.944C39.6557 44.9813 39.6077 45 39.5491 45H38.7331C38.6797 45 38.6344 44.9813 38.5971 44.944C38.5597 44.9067 38.5411 44.8587 38.5411 44.8V41.568L37.5251 43.472C37.4984 43.52 37.4637 43.5627 37.4211 43.6C37.3784 43.6373 37.3224 43.656 37.2531 43.656H36.8771C36.8077 43.656 36.7517 43.6373 36.7091 43.6C36.6664 43.5627 36.6317 43.52 36.6051 43.472L35.5891 41.568V44.8C35.5891 44.8587 35.5704 44.9067 35.5331 44.944C35.4957 44.9813 35.4504 45 35.3971 45H34.5811Z" fill="#FF8181"/>
</svg>
