<svg width="64" height="64" viewBox="0 0 64 64" fill="none" xmlns="http://www.w3.org/2000/svg">
<path d="M24 31C24 31 20 34.8376 20 38.3333C20 41.8291 24 42.1709 24 45.6667C24 49.1624 20 53 20 53" stroke="#FF9224" stroke-width="3"/>
<path d="M44 31C44 31 40 34.8376 40 38.3333C40 41.8291 44 42.1709 44 45.6667C44 49.1624 40 53 40 53" stroke="#FF9224" stroke-width="3"/>
<path fill-rule="evenodd" clip-rule="evenodd" d="M41.9729 17.3438V17.3132L37.3003 13H27.083L22.4104 17.3132V17.3438H41.9729ZM20.4104 22.2594V22.375V23.3672V23.672V25.9062C20.4104 26.1824 20.6342 26.4062 20.9104 26.4062H22.6291C22.9053 26.4062 23.1291 26.1824 23.1291 25.9062V23.6875H41.2541V25.9062C41.2541 26.1824 41.478 26.4062 41.7541 26.4062H43.4729C43.749 26.4062 43.9729 26.1824 43.9729 25.9062V22.9607V22.375V17.3438H45.8826C46.2543 17.3438 46.496 16.9526 46.3298 16.6201L45.9236 15.8076C45.8389 15.6383 45.6657 15.5312 45.4764 15.5312H42.9911L38.6568 11.5304C38.2874 11.1894 37.8031 11 37.3003 11H27.083C26.5802 11 26.0959 11.1894 25.7264 11.5304L21.3921 15.5312H18.9069C18.7175 15.5312 18.5444 15.6383 18.4597 15.8076L18.0534 16.6201C17.8872 16.9526 18.129 17.3438 18.5006 17.3438H20.4104V22.0991V22.2594Z" fill="#FF9224"/>
</svg>
